<svg x="0px" y="0px" viewBox="0 0 100 100" class="cakestand">
<g id="Layer_2">
	<path d="M77.2,90.4H23.8v-2.5c0-2,0-7.3,4.4-9.1c0.3-0.1,0.6-0.2,0.9-0.3c0.2-0.1,0.5-0.1,0.5-0.2c0.3-0.3,0.3-2.1,0.3-2.8l0-2.8   h2.5c0.1,0,4.3-0.3,5.7-3.7H10.7c-3.1,0-5.6-2.7-5.6-6s2.5-6,5.6-6h79.5c3.1,0,5.6,2.7,5.6,6s-2.5,6-5.6,6H62.8   c1.5,3.3,5.7,3.7,5.7,3.7H71l0,2.8c0,0.7,0,2.5,0.3,2.8c0.1,0,0.3,0.1,0.5,0.2c0.3,0.1,0.6,0.2,0.9,0.3c4.4,1.8,4.4,7.1,4.4,9.1   V90.4z M28.9,85.4h43c-0.3-1.6-0.9-1.9-1.1-1.9c-0.2-0.1-0.3-0.1-0.5-0.2c-0.5-0.1-1.1-0.3-1.7-0.7c-2-1.2-2.5-3.4-2.7-5.3   c-3.8-1-8.7-4.1-8.7-10.8V64h32.9c0.2,0,0.6-0.4,0.6-1s-0.4-1-0.6-1H10.7c-0.2,0-0.6,0.4-0.6,1s0.4,1,0.6,1h32.9v2.5   c0,6.7-5,9.8-8.7,10.8c-0.1,1.9-0.7,4-2.7,5.3c-0.6,0.4-1.2,0.6-1.7,0.7c-0.2,0-0.3,0.1-0.5,0.2C29.8,83.5,29.2,83.8,28.9,85.4z"/>
	<path d="M91.6,48.6l-1.2,1.2c0,0-0.2,0.2-0.4,0.1c-0.1,0-0.3-0.1-0.4-0.4l-0.1-0.1c-5.6-14-10.5-26.1-35-27.4   c1.5-1.3,2.5-3.2,2.5-5.4c0-3.8-3.1-7-7-7c-3.9,0-7,3.1-7,7c0,2.2,1,4.1,2.5,5.4c-24.5,1.3-29.4,13.5-35,27.4l0,0.1   c-0.1,0.3-0.3,0.3-0.4,0.4c-0.3,0-0.4-0.1-0.4-0.1l-1.2-1.2l-3.5,3.5l1.2,1.2c1,1,2.4,1.6,3.9,1.6c0.4,0,0.7,0,1.1-0.1   c1.8-0.4,3.3-1.6,4-3.4l0.1-0.1C21.1,36.6,25,26.8,50,26.8c25,0,28.9,9.7,34.8,24.4l0.1,0.1c0.7,1.7,2.2,3,4,3.4   c1.8,0.4,3.7-0.2,5-1.5l1.2-1.2L91.6,48.6z M50,14.6c1.1,0,2,0.9,2,2c0,1.1-0.9,2-2,2c-1.1,0-2-0.9-2-2C48,15.5,48.9,14.6,50,14.6z   "/>
</g>
</svg>